<svg xmlns="http://www.w3.org/2000/svg" xmlns:xlink="http://www.w3.org/1999/xlink" width="1284" height="513.6" xmlns:v="https://vecta.io/nano"><style><![CDATA[.AD{stroke-linejoin:round}.AE{stroke-linecap:round}.AF{fill:none}.AG{stroke:#000}.AH{stroke-width:.96}.AI{stroke-width:.64}.AJ{fill:#fff}.AK{stroke-miterlimit:10}.AL{fill:#ff472c}.AM{stroke:#fff}.AN{fill:#ffece9}.AO{stroke:#ff472c}.AP{stroke-width:.86}.AQ{stroke-width:.32}.AR{stroke:#e8e5e3}.AS{stroke:#ddd}.AT{fill:#f7f5f3}.AU{fill:#262626}.AV{stroke-width:.63}.AW{stroke-width:1.28}.AX{stroke-width:2.57}.AY{stroke-linejoin:bevel}]]></style><defs><clipPath id="A"><path d="M0 0h1284v513.6H0z" class="AF"/></clipPath><clipPath id="B"><path d="M612.48 74.82a34.92 34.92 0 0 1 15.13 7.77c6.68 6.1 24.3 29.83 26 31.78 0 0-5.77 12.25-18.22 16.93l-7.4-7.9-13.33 28.43c-1.5 2.72-47.3.58-47.3.58l2.3-25.2s-16-4.18-22.5-9.23c0 0 13.5-37.6 25.33-43.75s25.42-2.75 25.42-2.75z" class="AF"/></clipPath><clipPath id="C"><path d="M279.6 306.63h51.36V358H279.6z" class="AF"/></clipPath><path id="D" d="M612.48 74.82a34.92 34.92 0 0 1 15.13 7.77c6.68 6.1 24.3 29.83 26 31.78 0 0-5.77 12.25-18.22 16.93l-7.4-7.9-13.33 28.43c-1.5 2.72-47.3.58-47.3.58l2.3-25.2s-16-4.18-22.5-9.23c0 0 13.5-37.6 25.33-43.75s25.42-2.75 25.42-2.75z"/></defs><g clip-path="url(#A)"><g class="AF AS"><path d="M199.05 439.8l-3.22-2.85a2 2 0 0 1-.65-1.6 25.3 25.3 0 0 0 0-2.89 2 2 0 0 1 .62-1.59l3.1-2.86a2 2 0 0 0 .47-2.24l-3-7a2 2 0 0 0-1.95-1.21l-4 .24a2 2 0 0 1-1.61-.69 26.17 26.17 0 0 0-2.35-2.36 2 2 0 0 1-.68-1.55l.14-3.9a2 2 0 0 0-1.25-1.92l-7.07-2.83a2 2 0 0 0-2.22.53l-2.4 2.7a2 2 0 0 1-1.64.65 24.11 24.11 0 0 0-3.8 0 2 2 0 0 1-1.6-.61l-2.4-2.6a2 2 0 0 0-2.24-.47l-7 3a2 2 0 0 0-1.2 1.95l.2 3.37a2 2 0 0 1-.68 1.6 25.12 25.12 0 0 0-2.84 2.9 2 2 0 0 1-1.58.72l-3.37-.12a2 2 0 0 0-1.91 1.25l-2.83 7.07a2 2 0 0 0 .53 2.22l2.57 2.28a2 2 0 0 1 .65 1.6 24.5 24.5 0 0 0 .08 3.93 2 2 0 0 1-.6 1.65l-2.56 2.38a2 2 0 0 0-.47 2.24l3 7a2 2 0 0 0 1.94 1.21l3.76-.23a2 2 0 0 1 1.57.65 25.3 25.3 0 0 0 2.55 2.41 2 2 0 0 1 .73 1.59l-.13 3.84a2 2 0 0 0 1.24 1.92l7.07 2.83a2 2 0 0 0 2.23-.53l2.74-3.1a2 2 0 0 1 1.57-.65 25.62 25.62 0 0 0 3-.07 2 2 0 0 1 1.63.61l2.86 3.07a2 2 0 0 0 2.23.47l7-3a2 2 0 0 0 1.2-1.95l-.26-4.36a2 2 0 0 1 .65-1.58 24.4 24.4 0 0 0 2-2 2 2 0 0 1 1.57-.7l4.36.16a2 2 0 0 0 1.92-1.25l2.82-7.07a2 2 0 0 0-.49-2.27zm-33.43 5a11.4 11.4 0 1 1 14.81-6.35 11.4 11.4 0 0 1-14.81 6.37z" class="AI AK"/><circle cx="1118.65" cy="213.34" r="23.22" stroke-width=".37"/></g><path d="M1141.88 213.34a23.18 23.18 0 0 0-1.52-8.19l-21.7 8.2 7.95 21.8a23.22 23.22 0 0 0 15.28-21.8z" fill="#ddd"/><g class="AT"><path d="M1079.625 225.04l46.28 28.953-3.023 4.832-46.28-28.953zm.26 12.67l34.504 21.586-3.023 4.832-34.504-21.586zm.71 12.953l21.822 13.652-3.023 4.832-21.822-13.652zm-.967 11.903l12.513 7.828-3.023 4.832-12.513-7.828z"/></g><path d="M109.9 241.16l-3.2-2.85a2 2 0 0 1-.66-1.6 25.32 25.32 0 0 0 0-2.89 2 2 0 0 1 .61-1.59l3.13-2.9a2 2 0 0 0 .47-2.23l-3-7a2 2 0 0 0-1.94-1.2l-4 .24a2 2 0 0 1-1.61-.7 24.81 24.81 0 0 0-2.34-2.36 2 2 0 0 1-.69-1.55l.14-3.9a2 2 0 0 0-1.25-1.92l-7.07-2.82a2 2 0 0 0-2.22.52l-2.4 2.7a2 2 0 0 1-1.64.65 25.37 25.37 0 0 0-3.8 0 2 2 0 0 1-1.59-.61l-2.4-2.58a2 2 0 0 0-2.23-.48l-7 3a2 2 0 0 0-1.2 2l.2 3.37a2 2 0 0 1-.69 1.6 25 25 0 0 0-2.83 2.9 2 2 0 0 1-1.58.72l-3.37-.12a2 2 0 0 0-1.92 1.25l-2.8 7a2 2 0 0 0 .53 2.22l2.58 2.3a2 2 0 0 1 .64 1.59 25.87 25.87 0 0 0 .09 3.94 2 2 0 0 1-.61 1.64l-2.55 2.38a2 2 0 0 0-.48 2.24l3 7a2 2 0 0 0 2 1.2l3.75-.23a2 2 0 0 1 1.57.65 25.3 25.3 0 0 0 2.48 2.41 2 2 0 0 1 .74 1.6l-.14 3.84a2 2 0 0 0 1.25 1.91l7.07 2.83a2 2 0 0 0 2.22-.53l2.75-3.1a2 2 0 0 1 1.57-.66 25.66 25.66 0 0 0 3-.07 2 2 0 0 1 1.63.61l2.9 3.07a2 2 0 0 0 2.24.47l7-3a2 2 0 0 0 1.2-1.94l-.27-4.37a2 2 0 0 1 .66-1.58 24.32 24.32 0 0 0 1.94-2 2 2 0 0 1 1.57-.69l4.37.15a2 2 0 0 0 1.91-1.24l2.83-7.07a2 2 0 0 0-.55-2.22zm-33.43 5a11.4 11.4 0 1 1 14.82-6.35 11.4 11.4 0 0 1-14.82 6.37z" class="AF AI AK AS"/><g class="AN"><path d="M187.52 304.5l-4.8-4.25a3 3 0 0 1-1-2.39 38.54 38.54 0 0 0 0-4.3 3 3 0 0 1 .92-2.37l4.66-4.33a3 3 0 0 0 .7-3.34l-4.47-10.43a3 3 0 0 0-2.9-1.79l-5.92.36a3 3 0 0 1-2.4-1 36.33 36.33 0 0 0-3.49-3.53 2.9 2.9 0 0 1-1-2.31L168 259a3 3 0 0 0-1.86-2.86l-10.53-4.2a3 3 0 0 0-3.32.78l-3.57 4a3 3 0 0 1-2.45 1 39.61 39.61 0 0 0-5.66 0 2.93 2.93 0 0 1-2.38-.9l-3.6-3.85a3 3 0 0 0-3.33-.71l-10.43 4.47a3 3 0 0 0-1.79 2.9l.3 5a2.89 2.89 0 0 1-1 2.38 38.3 38.3 0 0 0-4.22 4.32 2.93 2.93 0 0 1-2.35 1.08l-5-.18a3 3 0 0 0-2.85 1.86l-4.26 10.5a3 3 0 0 0 .79 3.32l3.84 3.4a3 3 0 0 1 1 2.38 38.13 38.13 0 0 0 .12 5.86 2.9 2.9 0 0 1-.9 2.46l-3.8 3.54a3 3 0 0 0-.7 3.34l4.47 10.43a3 3 0 0 0 2.9 1.79l5.6-.34a2.93 2.93 0 0 1 2.34 1 38.08 38.08 0 0 0 3.8 3.59 3 3 0 0 1 1.1 2.38l-.2 5.72a3 3 0 0 0 1.86 2.86l10.54 4.2a3 3 0 0 0 3.31-.78l4.1-4.62a3 3 0 0 1 2.33-1 38.14 38.14 0 0 0 4.54-.1 3 3 0 0 1 2.43.91l4.25 4.57a3 3 0 0 0 3.33.71l10.44-4.48a3 3 0 0 0 1.78-2.9l-.4-6.5a3 3 0 0 1 1-2.36 38.63 38.63 0 0 0 2.9-3 3 3 0 0 1 2.33-1l6.5.24a3 3 0 0 0 2.85-1.86l4.22-10.54a3 3 0 0 0-.85-3.33zm-51 10.37a20.1 20.1 0 1 1 26.13-11.2 20.1 20.1 0 0 1-26.11 11.2zM69.2 481.17l-2.55 13.66h57.65l2.28-15.36-55.15-.15a2.26 2.26 0 0 0-2.23 1.85z"/></g><path d="M77.3 487.1H115" stroke="#262626" class="AF AK AX"/><path d="M131.86 480.14H76a1.33 1.33 0 0 1-1.31-1.58l2.48-13.07a1.34 1.34 0 0 1 1.31-1.09h54.1a1.33 1.33 0 0 1 1.33 1.42l-.76 13.07a1.33 1.33 0 0 1-1.3 1.25z" class="AU"/><path d="M133.94 466.76H79.76l-2.26 11h55.75l.7-11z" class="AT"/><path d="M131.24 464.62l-56.45.2a.8.8 0 0 1-.79-1l2.63-13.36a.82.82 0 0 1 .78-.65l54.46-.8a.81.81 0 0 1 .81.84l-.64 14a.8.8 0 0 1-.8.76z" fill="#ddd"/><path d="M74.1 463.32l54.07-.16.8-11.45-52.66.47-2.2 11.14z" class="AT"/><g stroke="#7d7d7d" class="AD AE AF"><path d="M76.48 455.9h48.3" class="AI"/><path d="M75.86 459.3l48.15-.1" class="AV"/><g class="AI"><path d="M84.16 470.08h49.04m-50.53 4.04h50.53"/></g></g><path d="M130.76 435l-.57 14.15a1.52 1.52 0 0 1-1.5 1.46l-54.5.65a1.52 1.52 0 0 1-1.52-1.73l1.57-11.28a1.51 1.51 0 0 1 1.41-1.3l53.5-3.53a1.53 1.53 0 0 1 1.62 1.58z" class="AL"/><path d="M80.12 444.03l41.05-2.1" stroke="#262626" class="AF AK AX"/><path d="M135.93 418.5l-.26 14.34a1 1 0 0 1-.9.94l-55.84 3.76a1 1 0 0 1-1-1.06l1.47-13.27a1 1 0 0 1 .86-.85l54.63-4.84a1 1 0 0 1 1.04.98z" class="AU"/><g class="AD AE AF AI AS"><path d="M125.75 419.25l-.54 14.35m3.7-14.8l-.54 14.5m-42.03-10.6l-1.37 13.7m4.54-14.13l-1.3 13.9m6.13-8.87l26.72-2.53m-25.83 5.73l18.76-1.64"/></g><path d="M636.24 131s12.5 15 17.35 17 9.52 2.2 13.7-4c4.73-7 6-46.7 6.35-55.6a4 4 0 0 1 1.35-2.95c2.32-2 7-6.12 8.62-8.32 2.13-3-19.6-2.9-19.6-2.9a9.83 9.83 0 0 0-1.94 8.63s-3.3 16.78-5.24 23.3c-1.1 3.68-2.4 8.25-3.35 13l-1.5-2.03s-5.93 10.46-15.76 13.9z" class="AJ"/><g class="AD AE AF AG AH"><path d="M636.24 131s12.5 15 17.35 17 9.52 2.2 13.7-4c4.73-7 6-46.7 6.35-55.6a4 4 0 0 1 1.35-2.95c2.32-2 7-6.12 8.62-8.32 2.13-3-19.6-2.9-19.6-2.9a9.83 9.83 0 0 0-1.94 8.63s-3.3 16.78-5.24 23.3-4.56 15.85-4.65 24.3"/><path d="M652.02 117.1l1.5 2.08"/></g><path d="M696.33 87.13a96.86 96.86 0 0 0 10.37.17c25.06-.73 42.9-14.6 43.32-20.6l.35-3.23-2.3-.52a17.23 17.23 0 0 0-5-2.81c-6.5-2.52-17.15-4.15-30.5-4.15-20.36-.07-54 4.3-59.27 13.12l-1.3-.4.76 3.87c2.4 9.64 22.07 4.65 28.4 7.08 5 2 2.1 6.42 15.23 7.47"/><g class="AD AG AH AJ"><path d="M680.93 76.57c-6.32-2.44-26 2.56-28.4-7.08-2.77-11.15 37-16.7 59.86-16.6s37.87 4.76 37.46 10.74-18.27 19.85-43.33 20.58-19.53-5.28-25.6-7.63z"/><path d="M666.84 63.33s3.84-6.38 5.7-6.72c2.43-.44 9.18 1.85 10.74 2.42s-1.8 3.6-5.33 3.32-3.9.13-3.9.13l-.35 2s-5 .7-6.88-1.15z"/></g><path d="M673.63 64.92s7.6-1.23 5.66-2.6c0 0-3.6-.44-5.07 0zm-53.57-43.57s-9.88-2.94-17.57 3.63-11 14.82-15.2 17.17c-5.8 3.3-13.24.77-19.78 8.25-8.77 10-11.92 3.73-25.12 11.24-13.64 7.77-23.4 28.3 0 45 17.53 12.48 42.36 16.78 60.1 2.94s11.92-30.84 24.58-33.06c5.57-1 10.15-.6 13-5.77s-.48-13 2.87-21.95c2.3-6.17-.78-28.1-22.88-27.45z"/><use xlink:href="#D" class="AD AH AJ AM"/><g clip-path="url(#B)" fill="#ddd"><path d="M534 73.9h148.22v3.24H534zm0 72.8h148.22v3.24H534zm0-62.4h148.22v3.24H534zm0 10.4h148.22v3.24H534zm0 10.4h148.22v3.24H534zm0 10.4h148.22v3.24H534zm0 10.4h148.22v3.24H534zm0 10.4h148.22v3.24H534z"/></g><use xlink:href="#D" class="AD AF AG AH"/><path d="M819 493.74V156.07a9.08 9.08 0 0 0-9.1-9.07H386a9.07 9.07 0 0 0-9.08 9.08v328.67" class="AE AI AJ AK AM"/><g class="AL"><circle cx="389.69" cy="156.54" r="3.12"/><circle cx="411.98" cy="156.54" r="3.12"/><circle cx="400.83" cy="156.54" r="3.12"/></g><g class="AE AF AI"><path d="M819 493.74V156.07a9.08 9.08 0 0 0-9.1-9.07H386a9.07 9.07 0 0 0-9.08 9.08v328.67" stroke="#ccc" class="AK"/><g class="AD AO"><path d="M532.84 367.22h99.84M500.4 381.8h164.7m-164.7 14.58h164.7m-164.7 14.58h164.7m-164.7 14.6h164.7"/></g></g><rect x="514.58" y="204.29" width="140.47" height="130.94" rx="3.7" class="AN"/><g class="AF AG"><g class="AI"><circle cx="548.21" cy="248.7" r="14.87"/><g class="AD AE"><path d="M518.75 316.52l51.13-46.3 17 14.52 27.98-32.95 35.96 35.7"/></g></g><g class="AV AD"><path d="M747.6 214.17l8.8.42-15.13-11.8 2 19.08 4.3-7.7z"/><circle cx="748.86" cy="247.14" r="11.64"/><path d="M720 237.64l-18.08 19" class="AE"/></g></g><path d="M709.72 214.17l8.8.42-15.12-11.8 2 19.08 4.3-7.7z" fill="#ddd"/><g class="AE AF"><path d="M704.3 271.32v22.9h18.62V275.9H699" class="AD AG AV"/><g class="AK AW"><path d="M744.36 320.63v149.13c0 4-3.8 7.18-8.5 7.18H454c-4.7 0-8.5-3.22-8.5-7.18V177.44c0-4 3.8-7.18 8.5-7.18h281.87c4.7 0 8.5 3.2 8.5 7.18v13.48" stroke="#f7f5f3"/></g></g><path d="M609.87 205.35c2.6-2.83 7-2.2 10.52-.74 4.1 1.7 7.5 1.28 8.58-.27a.12.12 0 0 1 .23.08c-.32 2.57-5.3 14.22-15 11.37-5.8-1.68-7.9-6.54-4.33-10.44z" class="AH AJ AK AO"/><g class="AL"><path d="M612.26 206.6l-30.5-44.95a3.92 3.92 0 0 0-4.43.25 5.5 5.5 0 0 0-2.46 4.28l35 42.24c.54.58 2.84-1.16 2.38-1.82zm-1.08 7.85s.3-1.93 3.37-1.9 4.72.33 4.47-3.14 1-3.37 1.37-4.8c0 0 5.25 2.65 8.8-.2 0 0-5.85 17.77-18.02 10.03z"/></g><g class="AJ"><path d="M611.35 208.05h0zm-7.15-14.43l.62 2c1.22 3.44 2.66 4.94 3.78 5.58a2.91 2.91 0 0 0 1.82.44s-1.65-12.44-2.94-13.92-12.42-7.2-12.42-7.2l-2.44-2.87 10.24 15.1z"/><path d="M610.8 206.07c-.6-1.15-3.4-2.24-5.2-2.83l-1.5-.46-5.54-7.65.22-.13-23.9-28.82a5.5 5.5 0 0 1 2.46-4.28 4.65 4.65 0 0 1 1.4-.64l-4.07-4.8-9-10.13c0-4.3 6.05-19.12 6.05-19.12-6.67-.3-20.63-6.46-20.63-6.46-11.36 27.63-5.68 33.5-5.68 33.5 6.45 11.72 38.52 30.6 39.76 32.53s2.85 9.9 4.93 13.26 7.67 6.7 7.67 6.7c4 1.33 4.74-.23 4.74-.23s4.66 1.07 7 1.48a9.34 9.34 0 0 0 1.24.16 1.57 1.57 0 0 0 .57-.08h0c.4-.22.12-.73-.5-1.98z"/></g><g class="AD AE AF AG AH"><path d="M556 144.88s6.3-.2 9.76 2.15 24.83 28.2 28.83 33.05a4.31 4.31 0 0 0 1.57 1.09c2.8 1.28 7.93 4.18 10.36 5.56 2.6 1.48 3.4 11.5 3.86 14.13a.65.65 0 0 1-.7.77c-1.33-.14-4-1.34-5.58-8.3l-1.32-.65m-51.58-72.2s-8.94 20.38-6.9 31c1.77 9.33 32 29.15 39.46 33.9a5.19 5.19 0 0 1 2.19 2.94c1 3.52 3.3 10.88 4.78 12.63a33.75 33.75 0 0 0 7 5.73 5.39 5.39 0 0 0 3.42.43m-2.58-11.98s4.4 6.93 5.54 7.65 7 1.65 7.34 4.74a.57.57 0 0 1-.67.61l-8.63-1.7a2.85 2.85 0 0 1-1.54-.87l-5.56-7.2m-2.3 1.64l5.57 6a1.74 1.74 0 0 0 .44.31 8.75 8.75 0 0 0 5.35.59"/></g><path d="M601.63 190.93l-19.86-29.28a3.92 3.92 0 0 0-4.43.25 5.5 5.5 0 0 0-2.46 4.28l23.3 28.1z" class="AL"/><g class="AD AE AF"><g class="AG AH"><path d="M571.7 127.2s-5.66 13.22-6.08 19.5m17.88-45.54s-1.87 10-9.7 26.35c0 0-8.16-.66-22.6-7m74.43-26.68s1.4 7.56 2.88 13.75c1.3 5.54 1.78 10.18-.55 15.8"/></g><path d="M640.08 44.9a19.34 19.34 0 0 1-2.41 7.3" class="AI AM"/></g><g class="AG AH AD"><path d="M592.92 70.87h4.72a2 2 0 0 0 1.89-1.27l4.2-13.6 15.63 9.15-3 8.9a1.38 1.38 0 0 0 .64 1.66l4.4 2.45s-2 8.66-9.08 14.2c.04.03-16.47-8.27-19.38-21.5z" class="AJ"/><path d="M616.12,79.12a10.19,10.19,0,0,1,.49-5.65" class="AE AF"/></g><path d="M603.94 59c.84 2.9 3.66 9.9 11.7 11.68a.71.71 0 0 0 .82-.47l2.18-6.48a.71.71 0 0 0-.43-.89l-13.36-4.7a.7.7 0 0 0-.91.85z"/><g class="AD AG AJ"><path d="M604.76 44.16c-1.24-5-6.7-4.94-6.75.82 0 6.24 4.07 6 4.07 6 0 7.3 5.73 15.4 14.47 16.57 13.66 1.84 19.5-13.63 19.5-13.63-9.67-4-16.8-19.46-16.8-19.46a33.45 33.45 0 0 1-8.3 7 20.79 20.79 0 0 1-6.21 2.7z" class="AH"/><path d="M600.87,43.38a5.35,5.35,0,0,1,1.62,4.12" class="AE AI"/></g><g class="AL"><path d="M598.92 28.44s2.5 2.8 11.88 6.68c6.52 2.68 20.25 4.56 25.76 5.42 4.24.66 6.63 2.3 7 3.22a15.74 15.74 0 0 1-.42 4.35c-.53 1.58-.94 3-.94 3a9.58 9.58 0 0 0 4.58-3.6c1.92-3.4 2.34-10.23-4.46-18.38-5.6-6.73-6.75-10.34-17.34-13.68s-19.55 1.9-21.94 3.06c-5.17 2.52-9 5.72-5.92 12 .5-.5 1.8-2.07 1.8-2.07z"/><path d="M636.06 26.62a19 19 0 0 1 5.14-.62c2.7 0 6.68.24 6-1-2.13-4-10 .46-11.14 1.62zM707 72.93c-4 .38-11.6 5.87 7.46 5.8s8.6-9.34.12-7.7c-3.58.7-4.17 1.57-7.58 1.9z"/></g><g class="AF AG AI"><ellipse cx="734.27" cy="65.84" rx="7.2" ry="3.11"/><ellipse cx="695.84" cy="59.27" rx="6.43" ry="2.12"/><ellipse cx="708.41" cy="65.29" rx="6.94" ry="2.56"/><ellipse cx="688.88" cy="69.3" rx="6.96" ry="3.04"/><ellipse cx="720.78" cy="59.27" rx="6.71" ry="2.71"/></g><path d="M707 72.93c-4 .38-11.6 5.87 7.46 5.8s8.6-9.34.12-7.7c-3.58.7-4.17 1.57-7.58 1.9z" class="AL"/><g class="AF AG AI"><ellipse cx="734.27" cy="65.84" rx="7.2" ry="3.11"/><ellipse cx="695.84" cy="59.27" rx="6.43" ry="2.12"/><ellipse cx="708.41" cy="65.29" rx="6.94" ry="2.56"/><ellipse cx="688.88" cy="69.3" rx="6.96" ry="3.04"/><ellipse cx="720.78" cy="59.27" rx="6.71" ry="2.71"/></g><path d="M506.4 229.46H271.54a7.36 7.36 0 0 0-7.32 7.4v252.6c0 4.08 3.28 4.37 7.32 4.8H506.4c4-.43 7.32-1.15 7.32-5.23V236.86a7.36 7.36 0 0 0-7.32-7.4z" class="AJ"/><path d="M264.12 494.2V236.8a7.33 7.33 0 0 1 7.32-7.33H506.3a7.33 7.33 0 0 1 7.32 7.33v258.7" stroke="#ccc" class="AE AF AI AK"/><g clip-path="url(#C)" class="AJ"><path d="M273.17 300.2h64.2v64.2h-64.2z"/></g><g class="AL"><circle cx="276.92" cy="239.01" r="3.12"/><circle cx="299.22" cy="239.01" r="3.12"/><circle cx="288.07" cy="239.01" r="3.12"/></g><path d="M279.97 306.94h50.5v50.5h-50.5z" class="AF AK AQ AS"/><path d="M379.1 392.64a.62.62 0 0 1-.59.66 25.93 25.93 0 0 1-3.07.1c-.43 0-1.62 0-3.58-.07q-5.9-.13-8.13-.14l-4.62.07-5.4.14c-1.44 0-2.15-.23-2.15-.7s1.5-.72 4.54-.77a7 7 0 0 0 1.67-.14c.85-.1 1.27-.36 1.27-.83a17.75 17.75 0 0 0-.95-2.91l-1.67-4.52q-.48-1.53-2.07-5.62h-7.65c-2.23-.05-4.6 0-7.1.07q-.72 1.4-2.7 6.25l-1.75 4.5a5.11 5.11 0 0 0-.4 1.67c0 .78.6 1.3 1.76 1.52.26.05 1.56.14 3.9.28.74 0 1.1.24 1.1.6s-.47.6-1.43.6H325.9q-1.1 0-1.1-.7c0-.28.82-.46 2.47-.56 2.12-.1 3.47-.44 4.06-1s1.54-2.54 2.87-5.83q1.5-3.48 4.38-10.28l9.63-23.12c.48-1 1.14-2.6 2-4.8.6-1.57 1-2.36 1.36-2.36s.9 1.07 1.75 3.2q1.6 4.1 14 32.36 1.6 3.62 3.2 7.36c.9 2.13 1.8 3.43 2.7 3.9.7.37 2.34.53 4.94.48.63-.05.95.17.95.6zm-25.32-16.25c0-.14-.24-.58-.56-1.32q-3.2-8-4.64-11.3l-1.06-2.65-.54-1.24c-1 2-2.1 4.75-3.5 8.26q-2.3 5.9-3.33 8.26h13.62z" class="AT"/><path d="M309.6 332.86h181.17v73.22H309.6z" stroke-dasharray="2.57" class="AD AE AF AI AO"/><path d="M373.1 256.3h45.2v4.1h-45.2z" fill="#ddd"/><path d="M439.94 255.2h51.75v51.3h-51.75z" class="AT"/><g class="AF"><g class="AQ AS"><path d="M373.4 272.47h44.58" class="AK"/><g class="AD AE"><path d="M373.4 272.47h44.58m-44.58 6.86h44.58m-44.58 6.87h44.58m-44.58 6.86h44.58m-44.58 6.86h22.78"/></g></g><g class="AG AD AE AQ"><path d="M378.9 362.34h99.16m-99.16 9.06h99.16m-99.16 9.05h63.43"/></g><g class="AI AO AD AE"><path d="M307.94 427.36h162m-162 14.52h162m-162 14.52h162m-162 14.53h162"/></g></g><path d="M278.94 194.76l-6.6-16.16-15.44 8.08 3.8 37.75 18.25-8.52v-21.15z" class="AJ"/><path d="M242.17 92.54s11.76-.77 5.07-10.14c0 0 2.8-14.92-23-14.44 0 0-9.95-3.3-14.7 5.8 0 0-10.87 5-9 15.73s5.82 13.65 5.82 13.65z"/><g class="AJ"><path d="M208.65 128.84s-3.57-1.1-12 2.28-13.55 5.32-17.24 9.73-9.12 15.6-15.37 56.16c0 0 13 5.06 22.34 5 0 0-1.58 35.4-.55 41.9 0 0 54 15.5 78.5-2.93 0 0-1.68-44.5-2.75-49.27 0 0 14.77-2.63 17.32-5.5 0 0-7.17-26.32-11.9-36.16s-4.77-14-15-18.07c-9.16-3.67-12.6-3.15-12.6-3.15z"/><path d="M205 130s3.34-.4 6.2-4.5.67-18.7.67-18.7-4.8 2-7.26-4.42c-1.32-3.5.3-6.24 3.22-5.93a5.56 5.56 0 0 1 3.39 2s.2-3.92-.27-5.32c0 0 4.62-4 5.94-7.83 0 0 3.74 1.16 5.38-.94 0 0 11.4 6 21.62 4.65 0 0 2 15.72-3.08 22a19.32 19.32 0 0 1-6.72 4.7l.4 9.15a5.58 5.58 0 0 0 1.65 2.54 39.28 39.28 0 0 0 4.85 2.36s-2.15 10.87-13.68 11.74c-12.1.84-18.8-7.4-22.3-11.5z"/></g><path d="M238.5 128.32c.93 2.63-1.2 8.93-3.33 10.3 0 0 3.68-1.62 5.8-8.93z"/><g class="AF"><g class="AD AE AG AI"><path d="M234.87,69.64s8.08-2.26,10,5.37"/><path d="M241.34 71.66s3.32.9 4.3-.78m-43.2 6.4s1.72 1.53 5.07-.7"/></g><g class="AM AQ AD AE"><path d="M212 78.2s1.34-2.68 3.35-2.18c0 0 1.07-3.68 4.56-1.84m13.35 7.32s.83 2.54 3.85 1.38 1.42-2.43.45-1.66c-1.28 1 1.62 2.18 3 .2m5.8.24a5.61 5.61 0 0 0-3.53-2.5"/></g><g class="AG"><g class="AH AE"><path d="M244.87 95.57h1.18" class="AY"/><g class="AD"><path d="M234.07 115.64l.16 7c0 1.33.1 3.46 1.88 4.7l4.95 2.14s-1.83 11.18-13.78 12S208.2 134.23 205 130a9.71 9.71 0 0 0 6.32-4.66c2.23-3.52.56-18.52.56-18.52s-4.8 2-7.26-4.42c-1.32-3.5.3-6.24 3.22-5.93a5.56 5.56 0 0 1 3.39 2s.2-3.92-.27-5.32c0 0 4.62-4 5.94-7.84 0 0 3.74 1.17 5.38-.93 0 0 11.4 6 21.62 4.65 0 0 2 15.72-3.08 22-2.8 3.45-9.6 8.68-22.4 2.9"/></g></g><path d="M207,99.48a7,7,0,0,1,3.32,3.47" class="AD AE AI"/><g class="AH"><circle cx="225.77" cy="97.18" r="5.95"/><ellipse cx="240.96" cy="96.96" rx="5.41" ry="5.73"/><g class="AE AY"><path d="M210.8 97.18l9.1-1.6m12-.01h3.46"/></g></g></g></g><path d="M234.3 115.55c-8.38 2.6-15.9-1.65-15.9-1.65a17.52 17.52 0 0 0 15.91 6.34z"/><g class="AD AE AF AG AH"><path d="M196.15 201.2s5.93-28.2 6.2-35.8m5.3-36.56h-3.24s-17 4-23.86 10.74c-5.2 5.1-9.07 20.1-10.5 25.8s-5.63 26.32-6 31.64m32.63-50.64a21.24 21.24 0 0 1 5.4 12.07m37.56-30.13s12.9 2.06 19.8 8.17 17.2 40.6 19.5 49.73a61.19 61.19 0 0 1-17.07 5.49m-7.25-43.43s8 23 9.75 92.7c0 0-25 11.23-78.5 2.93 0 0-.8-31.44.55-41.9"/></g><path d="M185.86 243.9s-3.43 10.63-2.37 42.07c1 29.47-2.2 187.38-2.62 207.1a2 2 0 0 0 2 2H225a.74.74 0 0 0 .58-1.2c-1.58-1.9-6.46-5.9-20.58-9.45l23.78-184.26s7.17 66.15 7.17 87.85c0 19.77 4.33 92.24 5.1 104.52.07 1.05.93 2.28 2 2.28h41.74a.73.73 0 0 0 .5-1.26c-2.54-2.37-9.26-7.87-22.07-10.28l4.5-186.2a496.23 496.23 0 0 0-3.34-56.09s-16.1 5.7-41.67 5.73c-17 0-36.84-2.82-36.84-2.82z"/><g class="AD AE AF AI AM"><path d="M238.6 264.15a64.75 64.75 0 0 1-7.05 3.84l-2.8 34.6m-29.2-55.6s-.4 12.87-13.92 20.12"/></g><path d="M193.7 201.64l-1.1 7.66s29.1 4.3 38.17 3.2c0 0 11.4-3.76 13.44-3.18s10 3.6 11 4.54 5.53 7.66 5.53 7.66-.92 2.15-3.8 0l1.07 3.4h-6.83s-1.52-2.2-6.75-4.85c0 0-5.77 3.48-8.73 3.7a20.59 20.59 0 0 1-8.9-1.72s-23.42 8-43.14 6.8c0 0-14.73-.07-15.86-8.8s1.42-21.2 1.42-21.2 13.8 4.57 24.48 2.78z" class="AJ"/><g class="AD AE AF AG AH"><path d="M164.07,197s17,7.4,32.08,4.2"/><path d="M193.7 202l-1.1 6.84m-12.6.56s12-.48 18.06.68 29.3 2.78 32.65 2.4c0 0 11.62-3.47 13.44-3.18s10.1 3.56 11.43 4.9a73.45 73.45 0 0 1 5.07 7.29.29.29 0 0 1-.05.37c-.5.48-2.14 1.56-4.34-1"/><path d="M249.16 214a45.76 45.76 0 0 1 5.11 3.55 62.27 62.27 0 0 1 3.69 6.41.23.23 0 0 1-.13.32c-.7.24-2.65.6-4.26-1.74-2.1-3.08-7.52-6.24-7.52-6.24"/><path d="M253.93 223l1 1.5s-1 1.86-3.54 0c-3.4-2.48-4.8-4.2-7.34-4.44 0 0-5.5 3.44-8.38 3.7a20.9 20.9 0 0 1-10-2.22"/><path d="M169.2 198.86s-2.7 16.48-1.27 21.92c1.05 4 4.23 8.07 20.27 8.06 18.4 0 38.58-6.8 38.58-6.8"/></g><path d="M285.53,174.25H281.2a3.94,3.94,0,0,0-3.62,2.4L257.5,224H222.23a1.56,1.56,0,0,0-1.56,1.56v2.27a1.56,1.56,0,0,0,1.56,1.56h41.54V224h-.33Z"/><path d="M284.42 174.82H349a3.34 3.34 0 0 1 3.06 4.68l-19.4 44.3a8.64 8.64 0 0 1-7.92 5.18h-63.47a1.32 1.32 0 0 1-1.21-1.84l21.6-50.5a3 3 0 0 1 2.74-1.8z" class="AD AG AH AJ"/><g class="AM"><circle cx="307.9" cy="201.89" r="5.07" stroke-width=".43" class="AL"/><path d="M256.9 245.42s1.33 8.58 6.87 12.4" class="AD AE AF AI"/></g><rect x="777.86" y="229.46" width="200.24" height="264.36" rx="6.7" class="AJ"/><path d="M978.1 495.5V236.8c0-4-2.63-7.33-5.88-7.33H783.74c-3.25 0-5.88 3.28-5.88 7.33v258.7" stroke="#ccc" class="AE AF AI AK"/><g class="AL"><circle cx="791.83" cy="239.01" r="3.12"/><circle cx="814.13" cy="239.01" r="3.12"/><circle cx="802.98" cy="239.01" r="3.12"/></g><path d="M919.88 334.78h-89.1a4.87 4.87 0 0 1-4.87-4.87v-17.64a4.87 4.87 0 0 1 4.87-4.87h105.1l-11.14 5.7v16.82a4.87 4.87 0 0 1-4.87 4.87z" class="AN"/><g class="AD AH AR"><g class="AJ"><path d="M834.56 278.25h89.1a4.87 4.87 0 0 0 4.87-4.87v-4.8a4.87 4.87 0 0 0-4.87-4.87h-105.1l11.14 5.68v4a4.87 4.87 0 0 0 4.87 4.85z"/><circle cx="802.98" cy="266.88" r="12.34"/></g><path d="M808.56,277.75a21.13,21.13,0,0,0-2.7-8.63,5.12,5.12,0,1,0-5.76,0,21.26,21.26,0,0,0-2.7,8.77" class="AE AF"/><g class="AJ"><path d="M834.56 384.9h89.1a4.87 4.87 0 0 0 4.87-4.87v-17.64a4.87 4.87 0 0 0-4.87-4.87h-105.1l11.14 5.7V380a4.87 4.87 0 0 0 4.87 4.89z"/><circle cx="802.98" cy="359.33" r="12.34"/></g><path d="M808.56,370.2a21.08,21.08,0,0,0-2.7-8.63,5.12,5.12,0,1,0-5.76,0,21.21,21.21,0,0,0-2.7,8.77" class="AE AF"/><g class="AJ"><circle cx="952.75" cy="308.61" r="12.34"/><path d="M947.16,319.48a21.1,21.1,0,0,1,2.71-8.63,5.12,5.12,0,1,1,5.75,0,21.23,21.23,0,0,1,2.71,8.77" class="AE"/></g></g><path d="M919.88 447.83h-89.1a4.87 4.87 0 0 1-4.87-4.87V412.5a4.87 4.87 0 0 1 4.87-4.87h105.1l-11.14 5.68V443a4.87 4.87 0 0 1-4.87 4.83z" class="AN"/><g class="AD AH AJ"><g class="AR"><circle cx="952.75" cy="409.5" r="12.34"/><g class="AE"><path d="M947.16,420.37a21.1,21.1,0,0,1,2.71-8.63,5.12,5.12,0,1,1,5.75,0,21.23,21.23,0,0,1,2.71,8.77"/></g></g><path d="M788.7 462.2h178.73" stroke="#f7f5f3" class="AE"/></g><rect x="938.46" y="469.94" width="39.05" height="17.45" rx="3.07" class="AN"/><path d="M1111.9 20.3a55.83 55.83 0 0 0-47.58 85.05l-6.35 23 22.73-5.87a55.83 55.83 0 1 0 31.2-102.14z" class="AF AK AS AV"/><g class="AD AG"><path d="M951.1,123.76a44,44,0,0,0-.2-5.36c-.25-2.44-3.35-9.83-5.08-9.3-1.38.42.23,4.23.23,4.23Z" class="AH AJ"/><g class="AI"><path d="M925.05 106.48l-.1 3.3L940 134.87a1.26 1.26 0 0 0 1.33.56L956 131.7l.8-1.8z"/><path d="M940.6 104.16l-15.56 2.32 16.76 27.08 15-3.68-16.2-25.72z" class="AJ"/></g></g><path d="M933.47 116.23l3.8 6a.6.6 0 0 0 .61.26l10.52-2a.59.59 0 0 0 .38-.9l-3.6-5.6a.6.6 0 0 0-.58-.27l-10.72 1.64a.59.59 0 0 0-.41.86z" class="AL"/><g class="AD AF AQ"><path d="M934.16 115.9l7.28 1.74a.55.55 0 0 0 .54-.17l2.7-3.07" class="AE AM"/><g class="AG"><path d="M926.93 107.56l13.47-2.17 14.92 23.53-13.14 3.1-15.25-24.45z"/></g></g><g class="AJ"><g class="AH AD AG"><path d="M929.1 122s-4.4-1.67-2.45-3.64S937 114.6 937 116.9s-7.9 5.1-7.9 5.1z"/><path d="M929.76 124.93s-4.43-2.7-.66-4.66 9.8-1.46 8.83.7-7 4.42-8.17 3.96z"/></g><path d="M948 145.5l-.87-11.5-5.76 1.47a1.26 1.26 0 0 1-1.33-.56l-5.88-9.78s3.9-.72 4.3-2.62c.3-1.4-3.34-1.33-6.05-.27a5.73 5.73 0 0 0-2.4 1.56c-1.47 1.86 3 6.54 5.08 8.53a3 3 0 0 1 .93 2.33l-.6 12.62z"/></g><path d="M934.16 125.1s3.9-.7 4.3-2.62-6.55-1.1-8.45 1.3c-1.47 1.86 3 6.54 5.08 8.53a3 3 0 0 1 .93 2.33l-.6 12.62L948 145.5l-.9-11.94" class="AD AE AF AG AH"/><g class="AL"><path d="M1060.6 286.13l5 8.35 4.3-1.78-3.64-6a1.2 1.2 0 0 1 .6-1.74l21.72-8.15a1.19 1.19 0 0 1 1.44.5l3.9 6.4 3-1.13-6.1-9.76a1.77 1.77 0 0 0-2.11-.71l-26.7 10a2.78 2.78 0 0 0-1.41 4.01z"/><path d="M1052.72 303.54l9.58-8.7 42.6-17a3.92 3.92 0 0 1 4.48 1.16l16.27 19.93a3.52 3.52 0 0 1-.66 5.07h0l7.48 13.13a2.41 2.41 0 0 1-.85 3.25l-40.34 24.27a4.41 4.41 0 0 1-1.31.49l-16.14 3.25A2.64 2.64 0 0 1 1071 347l-19-39.38a3.44 3.44 0 0 1 .72-4.08z"/></g><g class="AD AE AF AI AM"><path d="M1054,305.45l6.4-5.47a3.08,3.08,0,0,1,4.37.36l16.73,20a7.52,7.52,0,0,0,9.3,1.82l34.35-17.87"/><path d="M1067.67 303.78l21.84 39.64"/></g><g class="AK AL AI AM"><rect x="1099.83" y="309.99" width="12.93" height="6.48" rx="1.27" transform="matrix(.895789 -.444479 .444479 .895789 -23.92 524.46)"/><path d="M1100.1 315.27l11.58-5.75" class="AE"/></g><path d="M1071.7 257.7a26.86 26.86 0 0 0 1 4 57.06 57.06 0 0 1 8.31 9.63 6.49 6.49 0 0 1 .75 2.11c.37 2.13 1.24 8.06-.2 8.84a1.92 1.92 0 0 1-1.63.14l-7.5 3.15-2.38-2-1.43-4-5 1.88s-.47-.05-.54-.43a38.62 38.62 0 0 1-.26-12.69l-1.88-6.5z" class="AJ"/><g class="AD AE AG AH"><path d="M1063.66 281.5a10.21 10.21 0 0 1-1.18-2.57 34.58 34.58 0 0 1 .38-10.55l-1.88-6.5 10.7-4.17a26.86 26.86 0 0 0 1 4 57.06 57.06 0 0 1 8.31 9.63 6.49 6.49 0 0 1 .75 2.11c.37 2.13 1.24 8.06-.2 8.84a1.92 1.92 0 0 1-1.63.14" class="AF"/><g class="AJ"><path d="M1079.88 276.9s.46 5.32-.7 6.32a4.56 4.56 0 0 1-2.68 1m.28-6.22s.83 6.42-1.1 7.13a8.93 8.93 0 0 1-2 .45"/></g></g><path d="M1073.25 279.26s1.34 5.57-.34 6.85c-1.3 1-3.47.4-4.82-1.65l1.47-.55z" class="AJ"/><g class="AD AE AF AG AH"><path d="M1073.25 279.26s1.34 5.57-.34 6.85c-1.3 1-3.47.4-4.82-1.65m-1.63-8.64a16.66 16.66 0 0 1 3.57 7.91m-2.9-6.68a2.54 2.54 0 0 0-.25 1.24 9.09 9.09 0 0 0 1.06 1.37"/></g><path d="M975.52 146.1c4.25-3.3 12.43-5.75 12.43-5.75l3.92-4.1a9.42 9.42 0 0 1 3.77-2.67c-1.67 3.47 3.9 10.2 3.9 10.2l11.37-7.94c1.9-1.17 2.63-4.26 2.63-4.26 1.66-.1 6.92 7.7 6.92 7.7a48.93 48.93 0 0 1 17.72 7.86c9.2 9.86 19.34 44.77 21.08 50s14.54 61.06 14.54 61.06c-2.5 3.4-13.68 5.5-13.68 5.5l-18.83-56.47-11.83-27.2-8.24 40.18-43.86.6-5.24-28.4-1.26-4.36a89 89 0 0 1-11.11 12.28c-6.23 5.8-10.52 5.7-13.83 5.68-10.23-.07-12.7-8.36-13.53-17.1-.65-6.87 1.55-45.92 1.55-45.92l14.47-1.1s4.4 32.2 3.48 38c0-.05 17.74-29.15 23.63-33.75z" class="AJ"/><path d="M1012.76 87.05s3.27-11.2 11.08-7.12c2.75 1.44 2.54 3.74 6.85 5.52a8.58 8.58 0 0 1 5 11c-1.25 2.67-3.38 7.83-12.9 7.74s-10.02-17.14-10.02-17.14z"/><path d="M984 112.87s-7.42-8.38-3.47-17.13c3.1-6.9 6.4-7.44 6.4-7.44s8.63-9.62 24.22-4.55 15.13 22.55 12.28 28.68-7.83 9.7-13.44 10.5-26-10.06-26-10.06z"/><path d="M986.55 115.3l-4.44 7.68H991l-4.44-7.68z" class="AD AF AG AH"/><path d="M989.26 124.78c-8.4-4.52-6.45-23.23-6.45-23.23s4.5-3.23 5.8-5.8c0 0 9 10.32 21.94 9v5.48s3.7-4.48 7.16-1.56c1.82 1.53 2.26 8.6-5.26 9 0 0-.3 11.7.38 15.82 0 0-4 4.4-13.3 10.2 0 0-5.12-6.08-4.16-9.64 0 0 .28-1-.27-7.7a15.44 15.44 0 0 1-5.85-1.56z" class="AJ"/><path d="M1008.6 122.2a18.25 18.25 0 0 1-13.23 8.25l-.27-4s8.46.42 13.5-4.25z"/><g class="AD AE AF AG AH"><path d="M1008.6 122.2s-10.2 7.5-19.35 2.58c-8.4-4.52-6.45-23.23-6.45-23.23s4.5-3.23 5.8-5.8c0 0 9 10.32 21.94 9v5.48s3.7-4.48 7.16-1.56c1.82 1.53 2.26 8.6-5.26 9 0 0-.3 11.7.38 15.82m-17.72-7.07s.83 7 .45 10.27"/></g><path d="M989.3 450.65s6.05 5.7 6.3 7.8-.35 36.32 0 36-1.4 0-1.4 0l-1.72-20.07-6.12 18.83a1.8 1.8 0 0 1-1.71 1.24h-18a.56.56 0 0 1-.42-.18l-3.83-4.07a1.06 1.06 0 0 1 .35-1.7l10.17-4.4z"/><g class="AD AF AG"><path d="M1016 110.22c-.2 0-2.83 2.6-3.27 4.43" class="AE AI"/><g class="AH"><path d="M1013.53 132.56s0 2.4-14 11.2c0 0-5.76-7.54-4.16-9.64 0 0-.35-.62-1.3 0s-6.14 6.22-6.14 6.22l3.27 12.9 8.08-8.87 4.2 11.2s13.6-9.87 17-16.33c0 0-6-8.47-7.4-7.7z"/><g class="AE"><path d="M978.6 152.9s-9.06 14-9.85 22.17c-.5 5.28 3.48 17.65 3.48 17.65l4.93 26.87h44.43c0 .06 7-32 7.72-40"/><path d="M1025.72 171.46l15.72 36.18c1.2 3.3 18.68 56.08 18.68 56.08s10.63-1.82 13.68-5.5c0 0-10.37-50.57-16.5-67s-12.8-40.95-21.33-45.9a50.88 50.88 0 0 0-15.5-6.1"/></g></g></g><path d="M972 361.67l7.1 97.7c-.62 5-4 20.17-8.7 26.24 1.6-.52 13.46-6 14.16-6.77 1.64-1.82 5.4-10.68 7.65-17.14.92-2.64-.86-6.32-.67-8.67.6-7.14 8.7-73.22 8.46-89z" class="AD AG AH AJ"/><path d="M1034.25 451s5.08 4.86 5.4 6.63 0 37.46 0 37.46h-2.15l-1.38-16.8-5.6 15.44a2 2 0 0 1-1.93 1.36h-19.15a1.1 1.1 0 0 1-.92-.5l-2.72-4.13a1.1 1.1 0 0 1 .5-1.63l10.47-4.35z"/><g class="AD AE AF AG AH"><path d="M1044.73 206.33a9.24 9.24 0 0 1 2.5-3.43m-22.96-44.12a19.2 19.2 0 0 1 6.5-11.36m-78.87 32.9s19.12-32.9 26.86-36.78a35.24 35.24 0 0 1 9.2-3.2M952 190.1c.9-5.75-3.6-48.27-3.6-48.27l-14.47 1.1s-2.2 39.05-1.55 45.92c.84 8.75 3.3 17 13.53 17.1 3.3 0 7.6.12 13.83-5.68A89 89 0 0 0 970.86 188"/></g><path d="M1008.87 361.3l14.53 96.48c-.2 5.03-5.07 22.3-9.3 27.9 1.38-.18 12.6-6.42 13.23-7.25 2.2-2.9 8-9.75 9.63-15.22s-.93-5.35-.93-12.52 2.5-73.7.94-89.4z" class="AD AG AH AJ"/><path d="M976.75 219.6v3.44l-.27.58c-11.67 28.65-21.7 138.57-21.7 138.57 49 9.47 98-1.16 98-1.16s-12.26-87.7-17.6-108.64A101 101 0 0 0 1022 223.2l-.16-3.6z"/><g class="AF AD"><g class="AE AI"><g class="AM"><path d="M977.62 223.2h43.18m-4.88-136.75s7.75 3.8 8.92 15.62"/></g><g class="AG"><path d="M999.3,144.38s-8.56,25.83-9.68,33.26,1.56,38.72,2.52,42"/></g></g><path d="M1014.94 115.3l-4.44 7.68h8.88l-2.04-3.52-1.48-2.57-.92-1.6z" class="AG AH"/><g class="AE"><g class="AM AQ"><path d="M1017.64 119.4l-1.54-2.67m-1.93.5l-2.2 3.7"/></g><g class="AG AI"><path d="M933.78 147.06l15-1.08M1058.8 259.7s11.2-2.32 14.1-5.2"/></g></g></g><g fill="#f4cbc9"><path d="M1120.9 369.9c.6 0 21.86-2.43 24.1.2s1.55 9.52-5.7 12zm-1.26-52.5c1.73-1.45 9.7.52 19.75 12.12s15.93 27.2 6.92 32.22-19.62-3.8-26.15-21.3c-5.37-14.38-1.56-22.18-.52-23.04z"/></g><path d="M1151.72,433.77s1.16,11.05,3.94,13.05" class="AD AE AF AG AI"/><g fill="#f4cbc9"><path d="M1193.26 307.17c3 1.44 5.54 20.6-2.26 33.78s-16.62 26.67-28.58 21.13-6.92-24.43-.34-34.47 26.85-22.52 31.18-20.44zm-23.4 85.73c-.86.08 13.34-22.17 30-25.12 11.87-2.1 17.74-1.9 20.13-1.62a.68.68 0 0 1 .38 1.17c-4.72 4.44-25.93 23.28-50.5 25.57zm21.13 8.5s13.17-6.24 19.4-2.6c6.06 3.53 11.28 18.8 15.95 22.13.08.06 0 .18-.06.15-3.8-1.02-28.85-8.43-35.3-19.68zm-38.86 33.12s.2-22.1-21-19.48c-15.07 1.85-19 6.54-24.88 9.1s-9.8 6.68-1.84 8.4 43.46 3.7 47.72 2z"/></g><path d="M1151.3 281.23c10.1-2.6 41.78 59.9 6.84 72.26-26.7 9.43-23.47-67.97-6.84-72.26z" class="AN"/><g class="AD AE AF AG AI"><path d="M1185.1 320.77s-22.78 46-27.67 75.8m-3.13 13.63s2.17 0 2.63 1.72"/></g><g class="AN"><path d="M1182.3 348.13c6.94 1.9 12.45 56.32-15.78 48.77-20.5-5.5 4.8-51.8 15.78-48.77zm-26.16 62.67s-10.54-19.75-24.24-10.8-15.55 39-12.65 39.78 30.56-13.17 36.9-28.98z"/></g><g class="AD AE AF AG AI"><path d="M1166.1 427.18a32.47 32.47 0 0 0-9.68 12.78m22.48-34.26s-14.8-.3-21.76 12.8"/></g><g class="AN"><path d="M1164.62 428.14s.84 12.94 12.1 15.76c10.85 2.7 23.54.45 32 9.37a.66.66 0 0 0 1.14-.39c.43-4.06.2-16-15-24.33-17.2-9.5-24.13-8.55-30.24-.4zm12.58-22.24s17.4 9.2 25.3 10.53 17.54 6.72 23.82 4.67a79 79 0 0 1-13.44-9.35c-6.3-5.56-18.7-19.44-35.67-5.85z"/></g><path d="M1136.86 380.88S1152.2 391 1157 407.25" class="AD AE AF AG AI"/><path d="M1139.5 382.36a134.06 134.06 0 0 0-26.31 2.63c-15.62 3-23.68 4.28-28.12 3.13 0 0 7.24-7.73 11-13.82s14.63-14.47 24.66-8.7 18.77 16.77 18.77 16.77z" class="AN"/><g class="AD AE AF AG AI"><path d="M1153.72 293.53s6.6 52.25 1.88 160.8m23.14-97.78s-18.55 40.94-21.78 57"/><path d="M1125.42,328a247.24,247.24,0,0,1,16,22.89c6.56,11,14.34,29.24,15.9,29.57"/></g><path d="M1167.2 494.55h-21.64a5.19 5.19 0 0 1-5.14-4.54l-4.57-36.52h41.06l-4.57 36.5a5.19 5.19 0 0 1-5.14 4.55z" class="AU"/><path d="M1137.83 469.2h37.12l1.97-15.7h-41.05l1.96 15.7z" class="AT"/><path d="M1175.6 464.1l1.33-10.6h-41.05l1.32 10.6h38.4z" class="AL"/><g class="AF"><g class="AE"><g class="AG"><g class="AW"><path d="M334.3 163.87s23.56-59.5 80.8-55.26 81.9 53.62 67.3 55.82c-17.78 2.7-35.12-36.92-6.45-31 52 10.82 83.64 107.7 140 99.84" class="AK"/><g class="AD"><path d="M611.46 329.94C737.36 353.67 783.74 229.46 800.3 198c41-77.68 115.9-77.62 115.9-77.62"/><path d="M801.45 216.4c33.3-78.4 97.55-86 116.32-87.3" stroke-dasharray="5.14"/></g><g class="AK"><path d="M518.82 176l1.7 1.9"/><path d="M523.8 181.54l20.17 22.24c17 18.33 33.66 35.38 52.63 37.67" stroke-dasharray="4.92 4.92"/><path d="M599.07 241.66h2.56"/></g></g><g class="AP AK"><path d="M811 122.38v10.25"/><path d="M806.64 127.5h8.74M446.2 95.4v10.25"/><path d="M441.83 100.53h8.74"/></g></g><g class="AO AK AP"><path d="M896.37 189.87v10.25"/><path d="M892 195h8.74"/></g></g><path d="M319.53 104.16h9.74v9.74h-9.74zm501.5-2.56h9.74v9.74h-9.74zM666.838 261.948l6.887 6.887-6.887 6.887-6.887-6.887zm-116.502-91.203l6.887 6.887-6.887 6.887-6.887-6.887z" class="AK AO AP"/><circle cx="754.83" cy="159.44" r="4.81" class="AO AP"/><g class="AG AP"><circle cx="845.28" cy="217.61" r="4.81"/><circle cx="378.27" cy="67.38" r="4.81"/></g><g class="AE AK AO AP"><path d="M369.6 47.75V58"/><path d="M365.24 52.88h8.73"/></g><g class="AD AI AE AO"><path d="M835.82 271.07h87.68m-91.75 45.73h87.68m-87.68 8.97h87.68M835.82 367h87.68m-87.68 8.96h87.68m-91.75 39.44h87.68m-87.68 8.75h87.68m-87.68 8.75h87.68m-87.68 8.77h87.68"/></g></g><path d="M1139.56,68a26.56,26.56,0,1,0-38.38,23.75v4.13a1.84,1.84,0,0,0,1.84,1.84h20a1.84,1.84,0,0,0,1.84-1.84V91.75A26.55,26.55,0,0,0,1139.56,68Z" class="AN"/><g class="AU"><rect x="1101.7" y="98.91" width="22.39" height="2.88" rx=".76"/><path d="M1122.27 102.9h-18.53a.66.66 0 0 0-.66.67v1.1a.66.66 0 0 0 .66.66h1.68l.86 5.54a1.14 1.14 0 0 0 1.11.95h11.23a1.14 1.14 0 0 0 1.11-.95l.86-5.54h1.68a.66.66 0 0 0 .66-.66v-1.1a.66.66 0 0 0-.66-.67z"/></g><g class="AF AE"><g class="AD AQ AS"><path d="M1105.97 105.33h14.23m-13.88 2.3h13.53"/></g><path d="M1109.6 97.43s-3.06-22.38-7.3-23.35a2 2 0 0 0-2.53 2.45c.4 1.1 6.2 5 11-2.25s-1.85-8.94-2.87-6 4.23 10 10.1 5.86 2.18-7 .54-5.6-2.18 7.78 3.62 9.28 7.84-2 5.46-3.82-8.34 1.38-11.07 23.48" class="AK AO AQ"/><path d="M66.53 495.1h1101.83" stroke="#afafaf" class="AD AW"/></g></g></svg>